<?xml version="1.0" encoding="iso-8859-1"?>
<!-- Generator: Adobe Illustrator 19.0.0, SVG Export Plug-In . SVG Version: 6.00 Build 0)  -->
<svg version="1.1" id="Layer_1" xmlns="http://www.w3.org/2000/svg" xmlns:xlink="http://www.w3.org/1999/xlink" x="0px" y="0px"
	 viewBox="0 0 329.871 329.871" style="enable-background:new 0 0 329.871 329.871;" xml:space="preserve">
<g id="XMLID_2_">
	<path id="XMLID_4_" d="M104.839,60c-8.284,0-15,6.716-15,15c0,8.284,6.716,15,15,15c74.439,0,135,60.561,135,135
		c0,8.284,6.716,15,15,15c8.284,0,15-6.716,15-15C269.839,134.018,195.82,60,104.839,60z"/>
	<path id="XMLID_5_" d="M263.937,65.901C221.44,23.404,164.938,0,104.839,0c-8.284,0-15,6.716-15,15c0,8.284,6.716,15,15,15
		c107.523,0,195,87.477,195,195c0,8.284,6.716,15,15,15c8.284,0,15-6.716,15-15C329.839,164.901,306.434,108.398,263.937,65.901z"/>
	<path id="XMLID_6_" d="M159.141,191.91l18.878-18.877c5.858-5.857,5.858-15.355,0.001-21.213c-5.858-5.858-15.355-5.858-21.214,0
		l-18.878,18.877l-76.34-76.34c-5.857-5.857-15.355-5.857-21.213,0c-53.791,53.791-53.791,141.314,0,195.105
		c26.057,26.059,60.701,40.408,97.553,40.408c36.852,0,71.496-14.35,97.553-40.408c5.857-5.857,5.857-15.355,0-21.213
		L159.141,191.91z"/>
</g>
<g>
</g>
<g>
</g>
<g>
</g>
<g>
</g>
<g>
</g>
<g>
</g>
<g>
</g>
<g>
</g>
<g>
</g>
<g>
</g>
<g>
</g>
<g>
</g>
<g>
</g>
<g>
</g>
<g>
</g>
</svg>
